<?xml version="1.0" encoding="UTF-8" standalone="no"?>
<svg width="78px" height="18px" viewBox="0 0 78 18" version="1.1" xmlns="http://www.w3.org/2000/svg" xmlns:xlink="http://www.w3.org/1999/xlink" xmlns:sketch="http://www.bohemiancoding.com/sketch/ns">
    <!-- Generator: Sketch 3.2.2 (9983) - http://www.bohemiancoding.com/sketch -->
    <title>clear</title>
    <desc>Created with Sketch.</desc>
    <defs></defs>
    <g id="Page-1" stroke="none" stroke-width="1" fill="none" fill-rule="evenodd" sketch:type="MSPage">
        <g id="clear" sketch:type="MSArtboardGroup">
            <path d="M7.53888889,8.12777778 L6.52777778,9.13888889 L9.77777778,12.3888889 L17,5.16666667 L15.9888889,4.15555556 L9.77777778,10.3666667 L7.53888889,8.12777778 L7.53888889,8.12777778 Z M15.5555556,14.5555556 L5.44444444,14.5555556 L5.44444444,4.44444444 L12.6666667,4.44444444 L12.6666667,3 L5.44444444,3 C4.65,3 4,3.65 4,4.44444444 L4,14.5555556 C4,15.35 4.65,16 5.44444444,16 L15.5555556,16 C16.35,16 17,15.35 17,14.5555556 L17,8.77777778 L15.5555556,8.77777778 L15.5555556,14.5555556 L15.5555556,14.5555556 Z" id="Shape-2" fill="#4C565D" sketch:type="MSShapeGroup"></path>
            <path d="M24.2295786,15.5968815 L58.4999986,15.5968815" id="Path-28" stroke="#4C565D" sketch:type="MSShapeGroup"></path>
            <path d="M30.2158203,10.6318359 C30.1897785,10.9931659 30.1083991,11.3251938 29.9716797,11.6279297 C29.8349603,11.9306656 29.6461601,12.1902658 29.4052734,12.4067383 C29.1643868,12.6232107 28.8722348,12.7924799 28.5288086,12.9145508 C28.1853824,13.0366217 27.7939475,13.0976562 27.3544922,13.0976562 C26.8987607,13.0976562 26.4894224,13.0187182 26.1264648,12.8608398 C25.7635073,12.7029615 25.4558932,12.4759129 25.2036133,12.1796875 C24.9513334,11.8834621 24.7576504,11.5245789 24.6225586,11.1030273 C24.4874668,10.6814758 24.4199219,10.2086615 24.4199219,9.68457031 L24.4199219,9.21582031 C24.4199219,8.69172915 24.4899082,8.21810107 24.6298828,7.79492188 C24.7698575,7.37174268 24.9676094,7.01204575 25.2231445,6.71582031 C25.4786797,6.41959487 25.7887352,6.19173257 26.1533203,6.03222656 C26.5179055,5.87272056 26.9248024,5.79296875 27.3740234,5.79296875 C27.816734,5.79296875 28.2081689,5.85563088 28.5483398,5.98095703 C28.8885108,6.10628318 29.1774077,6.28043508 29.4150391,6.50341797 C29.6526705,6.72640085 29.8382155,6.99169768 29.9716797,7.29931641 C30.1051439,7.60693513 30.1897785,7.94140444 30.2255859,8.30273438 L28.7607422,8.30273438 C28.7444661,8.09114478 28.7078453,7.90397217 28.6508789,7.74121094 C28.5939125,7.57844971 28.5117193,7.44173232 28.4042969,7.33105469 C28.2968745,7.22037705 28.1585295,7.13655627 27.9892578,7.07958984 C27.8199861,7.02262341 27.6149101,6.99414062 27.3740234,6.99414062 C26.8792293,6.99414062 26.5105806,7.17398909 26.2680664,7.53369141 C26.0255522,7.89339373 25.9042969,8.45084258 25.9042969,9.20605469 L25.9042969,9.68457031 C25.9042969,10.0524107 25.9311521,10.3746731 25.9848633,10.6513672 C26.0385745,10.9280613 26.1232091,11.1591788 26.2387695,11.3447266 C26.35433,11.5302744 26.5040681,11.6694331 26.6879883,11.762207 C26.8719085,11.8549809 27.0940742,11.9013672 27.3544922,11.9013672 C27.5856131,11.9013672 27.7849927,11.8753258 27.9526367,11.8232422 C28.1202808,11.7711586 28.2602533,11.6922206 28.3725586,11.5864258 C28.4848638,11.480631 28.5719398,11.3479826 28.6337891,11.1884766 C28.6956383,11.0289706 28.7347004,10.8434255 28.7509766,10.6318359 L30.2158203,10.6318359 Z M33.3425782,11.8232422 L36.4529297,11.8232422 L36.4529297,13 L31.8777344,13 L31.8777344,5.890625 L33.3425782,5.890625 L33.3425782,11.8232422 Z M42.2701173,9.91894531 L39.4576173,9.91894531 L39.4576173,11.8232422 L42.7583985,11.8232422 L42.7583985,13 L37.9927735,13 L37.9927735,5.890625 L42.7486329,5.890625 L42.7486329,7.07714844 L39.4576173,7.07714844 L39.4576173,8.77148438 L42.2701173,8.77148438 L42.2701173,9.91894531 Z M48.3314455,11.5351562 L45.7630861,11.5351562 L45.2748048,13 L43.7171876,13 L46.363672,5.890625 L47.7210939,5.890625 L50.3822267,13 L48.8246095,13 L48.3314455,11.5351562 Z M46.1585939,10.3486328 L47.9359376,10.3486328 L47.042383,7.6875 L46.1585939,10.3486328 Z M54.3781252,10.3974609 L53.211133,10.3974609 L53.211133,13 L51.7462893,13 L51.7462893,5.890625 L54.3878908,5.890625 C54.7980491,5.890625 55.165884,5.93701125 55.4914064,6.02978516 C55.8169289,6.12255906 56.0919913,6.25927644 56.3166018,6.43994141 C56.5412123,6.62060637 56.7137366,6.84439971 56.8341799,7.11132812 C56.9546232,7.37825654 57.0148439,7.68749824 57.0148439,8.0390625 C57.0148439,8.29948047 56.9855474,8.53303933 56.9269533,8.73974609 C56.8683593,8.94645286 56.7837247,9.13037029 56.6730471,9.29150391 C56.5623694,9.45263752 56.4289072,9.59342388 56.2726564,9.71386719 C56.1164057,9.8343105 55.9406262,9.93847612 55.7453127,10.0263672 L57.2833986,12.9316406 L57.2833986,13 L55.711133,13 L54.3781252,10.3974609 Z M53.211133,9.2109375 L54.3927736,9.2109375 C54.5848319,9.2109375 54.7532872,9.18570989 54.8981447,9.13525391 C55.0430022,9.08479792 55.1634437,9.01318406 55.2594728,8.92041016 C55.355502,8.82763625 55.4279296,8.71696028 55.476758,8.58837891 C55.5255864,8.45979753 55.5500002,8.31575601 55.5500002,8.15625 C55.5500002,7.82096187 55.4547863,7.55729263 55.2643557,7.36523438 C55.073925,7.17317612 54.781773,7.07714844 54.3878908,7.07714844 L53.211133,7.07714844 L53.211133,9.2109375 Z" id="CLEAR" fill="#4C565D" sketch:type="MSShapeGroup"></path>
        </g>
    </g>
</svg>