<?xml version="1.0" encoding="utf-8"?>
<!-- Generator: Adobe Illustrator 18.1.0, SVG Export Plug-In . SVG Version: 6.00 Build 0)  -->
<!DOCTYPE svg PUBLIC "-//W3C//DTD SVG 1.1//EN" "http://www.w3.org/Graphics/SVG/1.1/DTD/svg11.dtd">
<svg version="1.1" id="Layer_1" xmlns="http://www.w3.org/2000/svg" xmlns:xlink="http://www.w3.org/1999/xlink" x="0px" y="0px"
	 viewBox="0 0 10.4 10.4" enable-background="new 0 0 10.4 10.4" xml:space="preserve">
<g>
	<g>
		<path fill="#FEEFAD" d="M10.3,1.1L5.4,6C5.4,6,5.3,6.1,5.2,6.1C5.1,6.1,5,6,5,6L0.1,1.1C0,1,0,0.9,0,0.9s0-0.2,0.1-0.2l0.5-0.5
			C0.7,0,0.8,0,0.9,0C0.9,0,1,0,1.1,0.1l4.1,4.1l4.1-4.1C9.4,0,9.5,0,9.5,0c0.1,0,0.2,0,0.2,0.1l0.5,0.5c0.1,0.1,0.1,0.2,0.1,0.2
			S10.4,1,10.3,1.1z"/>
	</g>
	<g>
		<path fill="#FEEFAD" d="M0.1,9.3L5,4.4C5,4.3,5.1,4.3,5.2,4.3c0.1,0,0.2,0,0.2,0.1l4.9,4.9c0.1,0.1,0.1,0.2,0.1,0.2s0,0.2-0.1,0.2
			l-0.5,0.5c-0.1,0.1-0.1,0.1-0.2,0.1c-0.1,0-0.2,0-0.2-0.1L5.2,6.2l-4.1,4.1c-0.1,0.1-0.2,0.1-0.2,0.1s-0.2,0-0.2-0.1L0.1,9.7
			C0,9.7,0,9.6,0,9.5C0,9.4,0,9.3,0.1,9.3z"/>
	</g>
</g>
</svg>
