<?xml version="1.0" encoding="UTF-8" standalone="no"?>
<svg width="100px" height="18px" viewBox="0 0 100 18" version="1.1" xmlns="http://www.w3.org/2000/svg" xmlns:xlink="http://www.w3.org/1999/xlink" xmlns:sketch="http://www.bohemiancoding.com/sketch/ns">
    <!-- Generator: Sketch 3.2.2 (9983) - http://www.bohemiancoding.com/sketch -->
    <title>date-order</title>
    <desc>Created with Sketch.</desc>
    <defs></defs>
    <g id="Page-1" stroke="none" stroke-width="1" fill="none" fill-rule="evenodd" sketch:type="MSPage">
        <g id="date-order" sketch:type="MSArtboardGroup" fill="#4C565D">
            <path d="M15.1881833,3.4 L14.4659611,3.4 L14.4659611,2 L13.0215166,2 L13.0215166,3.4 L7.24373884,3.4 L7.24373884,2 L5.7992944,2 L5.7992944,3.4 L5.07707218,3.4 C4.28262773,3.4 3.63262773,4.03 3.63262773,4.8 L3.63262773,14.6 C3.63262773,15.37 4.28262773,16 5.07707218,16 L15.1881833,16 C15.9826277,16 16.6326277,15.37 16.6326277,14.6 L16.6326277,4.8 C16.6326277,4.03 15.9826277,3.4 15.1881833,3.4 L15.1881833,3.4 Z M15.1881833,14.6 L5.07707218,14.6 L5.07707218,6.9 L15.1881833,6.9 L15.1881833,14.6 L15.1881833,14.6 Z" id="Shape-2" sketch:type="MSShapeGroup"></path>
            <path d="M25.6347656,13 L25.6347656,5.890625 L27.8222656,5.890625 C28.3007836,5.890625 28.7394186,5.97281819 29.1381836,6.13720703 C29.5369486,6.30159587 29.8787421,6.53271335 30.1635742,6.83056641 C30.4484064,7.12841946 30.6705721,7.485675 30.8300781,7.90234375 C30.9895841,8.3190125 31.0693359,8.78124746 31.0693359,9.2890625 L31.0693359,9.61132812 C31.0693359,10.1191432 30.9903979,10.5805643 30.8325195,10.9956055 C30.6746411,11.4106466 30.4516616,11.7670884 30.1635742,12.0649414 C29.8754868,12.3627945 29.531252,12.5930981 29.1308594,12.7558594 C28.7304667,12.9186206 28.2893904,13 27.8076172,13 L25.6347656,13 Z M27.0996094,7.07714844 L27.0996094,11.8232422 L27.8076172,11.8232422 C28.3870472,11.8232422 28.8281235,11.6320006 29.1308594,11.2495117 C29.4335953,10.8670228 29.5849609,10.3209671 29.5849609,9.61132812 L29.5849609,9.27929688 C29.5849609,8.55663701 29.4352229,8.00895369 29.1357422,7.63623047 C28.8362615,7.26350725 28.3984404,7.07714844 27.8222656,7.07714844 L27.0996094,7.07714844 Z M36.7449219,11.5351562 L34.1765625,11.5351562 L33.6882813,13 L32.1306641,13 L34.7771485,5.890625 L36.1345704,5.890625 L38.7957032,13 L37.238086,13 L36.7449219,11.5351562 Z M34.5720704,10.3486328 L36.3494141,10.3486328 L35.4558594,7.6875 L34.5720704,10.3486328 Z M44.9253907,7.07714844 L42.7476563,7.07714844 L42.7476563,13 L41.2828126,13 L41.2828126,7.07714844 L39.1343751,7.07714844 L39.1343751,5.890625 L44.9253907,5.890625 L44.9253907,7.07714844 Z M50.7376955,9.91894531 L47.9251955,9.91894531 L47.9251955,11.8232422 L51.2259767,11.8232422 L51.2259767,13 L46.4603517,13 L46.4603517,5.890625 L51.2162111,5.890625 L51.2162111,7.07714844 L47.9251955,7.07714844 L47.9251955,8.77148438 L50.7376955,8.77148438 L50.7376955,9.91894531 Z M61.8154299,9.60644531 C61.8154299,10.1500678 61.7421885,10.6375304 61.5957034,11.0688477 C61.4492183,11.5001649 61.2433284,11.8655584 60.9780276,12.1650391 C60.7127268,12.4645197 60.3945333,12.6948234 60.0234377,12.855957 C59.6523421,13.0170906 59.2438176,13.0976562 58.7978518,13.0976562 C58.351886,13.0976562 57.9433615,13.0170906 57.5722659,12.855957 C57.2011703,12.6948234 56.8813492,12.4645197 56.6127932,12.1650391 C56.3442372,11.8655584 56.1350921,11.5001649 55.9853518,11.0688477 C55.8356115,10.6375304 55.7607424,10.1500678 55.7607424,9.60644531 L55.7607424,9.29394531 C55.7607424,8.75357803 55.8347977,8.26692925 55.9829104,7.83398438 C56.1310231,7.4010395 56.3385406,7.03320464 56.605469,6.73046875 C56.8723974,6.42773286 57.1914046,6.19580159 57.5625002,6.03466797 C57.9335958,5.87353435 58.3421204,5.79296875 58.7880862,5.79296875 C59.2340519,5.79296875 59.6425765,5.87353435 60.0136721,6.03466797 C60.3847677,6.19580159 60.7037749,6.42773286 60.9707034,6.73046875 C61.2376318,7.03320464 61.4451492,7.4010395 61.593262,7.83398438 C61.7413747,8.26692925 61.8154299,8.75357803 61.8154299,9.29394531 L61.8154299,9.60644531 Z M60.3310549,9.28417969 C60.3310549,8.53873325 60.1975927,7.97233267 59.9306643,7.58496094 C59.6637359,7.19758921 59.2828803,7.00390625 58.7880862,7.00390625 C58.293292,7.00390625 57.9124365,7.19758921 57.6455081,7.58496094 C57.3785796,7.97233267 57.2451174,8.53873325 57.2451174,9.28417969 L57.2451174,9.60644531 C57.2451174,9.97754092 57.2801106,10.3054999 57.3500979,10.590332 C57.4200852,10.8751642 57.5209957,11.1144196 57.6528323,11.3081055 C57.7846689,11.5017913 57.9466139,11.6482742 58.1386721,11.7475586 C58.3307304,11.8468429 58.5504547,11.8964844 58.7978518,11.8964844 C59.2926459,11.8964844 59.6718739,11.7011738 59.9355471,11.3105469 C60.1992203,10.9199199 60.3310549,10.3518917 60.3310549,9.60644531 L60.3310549,9.28417969 Z M66.211719,10.3974609 L65.0447268,10.3974609 L65.0447268,13 L63.5798831,13 L63.5798831,5.890625 L66.2214847,5.890625 C66.631643,5.890625 66.9994778,5.93701125 67.3250003,6.02978516 C67.6505227,6.12255906 67.9255851,6.25927644 68.1501956,6.43994141 C68.3748061,6.62060637 68.5473304,6.84439971 68.6677737,7.11132812 C68.788217,7.37825654 68.8484378,7.68749824 68.8484378,8.0390625 C68.8484378,8.29948047 68.8191412,8.53303933 68.7605472,8.73974609 C68.7019531,8.94645286 68.6173185,9.13037029 68.5066409,9.29150391 C68.3959633,9.45263752 68.2625011,9.59342388 68.1062503,9.71386719 C67.9499995,9.8343105 67.77422,9.93847612 67.5789065,10.0263672 L69.1169925,12.9316406 L69.1169925,13 L67.5447268,13 L66.211719,10.3974609 Z M65.0447268,9.2109375 L66.2263675,9.2109375 C66.4184257,9.2109375 66.5868811,9.18570989 66.7317386,9.13525391 C66.8765961,9.08479792 66.9970376,9.01318406 67.0930667,8.92041016 C67.1890958,8.82763625 67.2615235,8.71696028 67.3103518,8.58837891 C67.3591802,8.45979753 67.383594,8.31575601 67.383594,8.15625 C67.383594,7.82096187 67.2883801,7.55729263 67.0979495,7.36523438 C66.9075189,7.17317612 66.6153668,7.07714844 66.2214847,7.07714844 L65.0447268,7.07714844 L65.0447268,9.2109375 Z M70.6617191,13 L70.6617191,5.890625 L72.8492191,5.890625 C73.3277371,5.890625 73.766372,5.97281819 74.1651371,6.13720703 C74.5639021,6.30159587 74.9056955,6.53271335 75.1905277,6.83056641 C75.4753598,7.12841946 75.6975256,7.485675 75.8570316,7.90234375 C76.0165376,8.3190125 76.0962894,8.78124746 76.0962894,9.2890625 L76.0962894,9.61132812 C76.0962894,10.1191432 76.0173514,10.5805643 75.859473,10.9956055 C75.7015946,11.4106466 75.4786151,11.7670884 75.1905277,12.0649414 C74.9024403,12.3627945 74.5582055,12.5930981 74.1578128,12.7558594 C73.7574202,12.9186206 73.3163439,13 72.8345706,13 L70.6617191,13 Z M72.1265628,7.07714844 L72.1265628,11.8232422 L72.8345706,11.8232422 C73.4140006,11.8232422 73.8550769,11.6320006 74.1578128,11.2495117 C74.4605487,10.8670228 74.6119144,10.3209671 74.6119144,9.61132812 L74.6119144,9.27929688 C74.6119144,8.55663701 74.4621763,8.00895369 74.1626956,7.63623047 C73.863215,7.26350725 73.4253938,7.07714844 72.8492191,7.07714844 L72.1265628,7.07714844 Z M82.1380863,9.91894531 L79.3255863,9.91894531 L79.3255863,11.8232422 L82.6263676,11.8232422 L82.6263676,13 L77.8607426,13 L77.8607426,5.890625 L82.6166019,5.890625 L82.6166019,7.07714844 L79.3255863,7.07714844 L79.3255863,8.77148438 L82.1380863,8.77148438 L82.1380863,9.91894531 Z M87.0175786,10.3974609 L85.8505864,10.3974609 L85.8505864,13 L84.3857427,13 L84.3857427,5.890625 L87.0273442,5.890625 C87.4375025,5.890625 87.8053374,5.93701125 88.1308599,6.02978516 C88.4563823,6.12255906 88.7314447,6.25927644 88.9560552,6.43994141 C89.1806657,6.62060637 89.35319,6.84439971 89.4736333,7.11132812 C89.5940766,7.37825654 89.6542974,7.68749824 89.6542974,8.0390625 C89.6542974,8.29948047 89.6250008,8.53303933 89.5664067,8.73974609 C89.5078127,8.94645286 89.4231781,9.13037029 89.3125005,9.29150391 C89.2018228,9.45263752 89.0683606,9.59342388 88.9121099,9.71386719 C88.7558591,9.8343105 88.5800796,9.93847612 88.3847661,10.0263672 L89.922852,12.9316406 L89.922852,13 L88.3505864,13 L87.0175786,10.3974609 Z M85.8505864,9.2109375 L87.032227,9.2109375 C87.2242853,9.2109375 87.3927406,9.18570989 87.5375981,9.13525391 C87.6824556,9.08479792 87.8028971,9.01318406 87.8989263,8.92041016 C87.9949554,8.82763625 88.067383,8.71696028 88.1162114,8.58837891 C88.1650398,8.45979753 88.1894536,8.31575601 88.1894536,8.15625 C88.1894536,7.82096187 88.0942397,7.55729263 87.9038091,7.36523438 C87.7133784,7.17317612 87.4212264,7.07714844 87.0273442,7.07714844 L85.8505864,7.07714844 L85.8505864,9.2109375 Z" id="DATE-ORDER" sketch:type="MSShapeGroup"></path>
        </g>
    </g>
</svg>