<?xml version="1.0" encoding="utf-8"?>
<!-- Generator: Adobe Illustrator 18.1.0, SVG Export Plug-In . SVG Version: 6.00 Build 0)  -->
<!DOCTYPE svg PUBLIC "-//W3C//DTD SVG 1.1//EN" "http://www.w3.org/Graphics/SVG/1.1/DTD/svg11.dtd">
<svg version="1.1" id="Layer_1" xmlns="http://www.w3.org/2000/svg" xmlns:xlink="http://www.w3.org/1999/xlink" x="0px" y="0px"
	 viewBox="0 0 16.6 17.8" enable-background="new 0 0 16.6 17.8" xml:space="preserve">
<g>
	<path fill="#4B565E" d="M16.6,16.6c0,0.7-0.6,1.3-1.3,1.3h-14c-0.7,0-1.3-0.6-1.3-1.3V3.8c0-0.7,0.6-1.3,1.3-1.3h1.3v-1
		C2.5,0.7,3.3,0,4.1,0h0.6c0.9,0,1.6,0.7,1.6,1.6v1h3.8v-1c0-0.9,0.7-1.6,1.6-1.6h0.6C13.3,0,14,0.7,14,1.6v1h1.3
		c0.7,0,1.3,0.6,1.3,1.3V16.6z M4.1,9.2V6.4H1.3v2.9H4.1z M4.1,13.1V9.9H1.3v3.2H4.1z M4.1,16.6v-2.9H1.3v2.9H4.1z M5.1,1.6
		c0-0.2-0.1-0.3-0.3-0.3H4.1C4,1.3,3.8,1.4,3.8,1.6v2.9c0,0.2,0.1,0.3,0.3,0.3h0.6c0.2,0,0.3-0.1,0.3-0.3V1.6z M8,9.2V6.4H4.8v2.9H8
		z M8,13.1V9.9H4.8v3.2H8z M8,16.6v-2.9H4.8v2.9H8z M11.8,9.2V6.4H8.6v2.9H11.8z M11.8,13.1V9.9H8.6v3.2H11.8z M11.8,16.6v-2.9H8.6
		v2.9H11.8z M12.7,1.6c0-0.2-0.1-0.3-0.3-0.3h-0.6c-0.2,0-0.3,0.1-0.3,0.3v2.9c0,0.2,0.1,0.3,0.3,0.3h0.6c0.2,0,0.3-0.1,0.3-0.3V1.6
		z M15.3,9.2V6.4h-2.9v2.9H15.3z M15.3,13.1V9.9h-2.9v3.2H15.3z M15.3,16.6v-2.9h-2.9v2.9H15.3z"/>
</g>
</svg>
