<?xml version="1.0" encoding="UTF-8" standalone="no"?>
<svg width="78px" height="18px" viewBox="0 0 78 18" version="1.1" xmlns="http://www.w3.org/2000/svg" xmlns:xlink="http://www.w3.org/1999/xlink" xmlns:sketch="http://www.bohemiancoding.com/sketch/ns">
    <!-- Generator: Sketch 3.2.2 (9983) - http://www.bohemiancoding.com/sketch -->
    <title>delete</title>
    <desc>Created with Sketch.</desc>
    <defs></defs>
    <g id="Page-1" stroke="none" stroke-width="1" fill="none" fill-rule="evenodd" sketch:type="MSPage">
        <g id="delete" sketch:type="MSArtboardGroup" fill="#4C565D">
            <path d="M15.5125422,4.72472868 L14.3003558,3.51254223 L9.45161001,8.36128801 L4.60286423,3.51254223 L3.39067779,4.72472868 L8.23942357,9.57347445 L3.39067779,14.4222202 L4.60286423,15.6344067 L9.45161001,10.7856609 L14.3003558,15.6344067 L15.5125422,14.4222202 L10.6637965,9.57347445 L15.5125422,4.72472868 Z" id="Shape-2" sketch:type="MSShapeGroup"></path>
            <path d="M23.6347656,13 L23.6347656,5.890625 L25.8222656,5.890625 C26.3007836,5.890625 26.7394186,5.97281819 27.1381836,6.13720703 C27.5369486,6.30159587 27.8787421,6.53271335 28.1635742,6.83056641 C28.4484064,7.12841946 28.6705721,7.485675 28.8300781,7.90234375 C28.9895841,8.3190125 29.0693359,8.78124746 29.0693359,9.2890625 L29.0693359,9.61132812 C29.0693359,10.1191432 28.9903979,10.5805643 28.8325195,10.9956055 C28.6746411,11.4106466 28.4516616,11.7670884 28.1635742,12.0649414 C27.8754868,12.3627945 27.531252,12.5930981 27.1308594,12.7558594 C26.7304667,12.9186206 26.2893904,13 25.8076172,13 L23.6347656,13 Z M25.0996094,7.07714844 L25.0996094,11.8232422 L25.8076172,11.8232422 C26.3870472,11.8232422 26.8281235,11.6320006 27.1308594,11.2495117 C27.4335953,10.8670228 27.5849609,10.3209671 27.5849609,9.61132812 L27.5849609,9.27929688 C27.5849609,8.55663701 27.4352229,8.00895369 27.1357422,7.63623047 C26.8362615,7.26350725 26.3984404,7.07714844 25.8222656,7.07714844 L25.0996094,7.07714844 Z M35.1111329,9.91894531 L32.2986329,9.91894531 L32.2986329,11.8232422 L35.5994141,11.8232422 L35.5994141,13 L30.8337891,13 L30.8337891,5.890625 L35.5896485,5.890625 L35.5896485,7.07714844 L32.2986329,7.07714844 L32.2986329,8.77148438 L35.1111329,8.77148438 L35.1111329,9.91894531 Z M38.6236329,11.8232422 L41.7339845,11.8232422 L41.7339845,13 L37.1587892,13 L37.1587892,5.890625 L38.6236329,5.890625 L38.6236329,11.8232422 Z M47.551172,9.91894531 L44.738672,9.91894531 L44.738672,11.8232422 L48.0394533,11.8232422 L48.0394533,13 L43.2738283,13 L43.2738283,5.890625 L48.0296876,5.890625 L48.0296876,7.07714844 L44.738672,7.07714844 L44.738672,8.77148438 L47.551172,8.77148438 L47.551172,9.91894531 Z M55.0480471,7.07714844 L52.8703127,7.07714844 L52.8703127,13 L51.4054689,13 L51.4054689,7.07714844 L49.2570314,7.07714844 L49.2570314,5.890625 L55.0480471,5.890625 L55.0480471,7.07714844 Z M60.8603518,9.91894531 L58.0478518,9.91894531 L58.0478518,11.8232422 L61.3486331,11.8232422 L61.3486331,13 L56.5830081,13 L56.5830081,5.890625 L61.3388674,5.890625 L61.3388674,7.07714844 L58.0478518,7.07714844 L58.0478518,8.77148438 L60.8603518,8.77148438 L60.8603518,9.91894531 Z" id="DELETE" sketch:type="MSShapeGroup"></path>
        </g>
    </g>
</svg>