<?xml version="1.0" encoding="utf-8"?>
<!-- Generator: Adobe Illustrator 18.1.0, SVG Export Plug-In . SVG Version: 6.00 Build 0)  -->
<!DOCTYPE svg PUBLIC "-//W3C//DTD SVG 1.1//EN" "http://www.w3.org/Graphics/SVG/1.1/DTD/svg11.dtd">
<svg version="1.1" id="Layer_1" xmlns="http://www.w3.org/2000/svg" xmlns:xlink="http://www.w3.org/1999/xlink" x="0px" y="0px"
	 viewBox="0 0 8.6 5" enable-background="new 0 0 8.6 5" xml:space="preserve">
<g opacity="0.7">
	<path d="M8.6,0.9l-4,4C4.5,5,4.4,5,4.3,5S4.2,5,4.1,5l-4-4C0,0.9,0,0.8,0,0.7s0-0.1,0.1-0.2l0.4-0.4C0.6,0,0.6,0,0.7,0
		c0.1,0,0.1,0,0.2,0.1l3.4,3.4l3.4-3.4C7.8,0,7.9,0,7.9,0s0.1,0,0.2,0.1l0.4,0.4c0.1,0.1,0.1,0.1,0.1,0.2S8.6,0.9,8.6,0.9z"/>
</g>
</svg>
