<?xml version="1.0" encoding="UTF-8" standalone="no"?>
<svg width="100px" height="18px" viewBox="0 0 100 18" version="1.1" xmlns="http://www.w3.org/2000/svg" xmlns:xlink="http://www.w3.org/1999/xlink" xmlns:sketch="http://www.bohemiancoding.com/sketch/ns">
    <!-- Generator: Sketch 3.2.2 (9983) - http://www.bohemiancoding.com/sketch -->
    <title>history</title>
    <desc>Created with Sketch.</desc>
    <defs></defs>
    <g id="Page-1" stroke="none" stroke-width="1" fill="none" fill-rule="evenodd" sketch:type="MSPage">
        <g id="history" sketch:type="MSArtboardGroup" fill="#4C565D">
            <path d="M7.07166563,11.7769231 L4.50499897,9.19230769 L3.64944341,10.0538462 L7.07166563,13.5 L14.404999,6.11538462 L13.5494434,5.25384615 L7.07166563,11.7769231 Z" id="Shape-2" sketch:type="MSShapeGroup"></path>
            <path d="M25.4208984,13 L23.9560547,13 L23.9560547,9.953125 L21.0996094,9.953125 L21.0996094,13 L19.6347656,13 L19.6347656,5.890625 L21.0996094,5.890625 L21.0996094,8.77148438 L23.9560547,8.77148438 L23.9560547,5.890625 L25.4208984,5.890625 L25.4208984,13 Z M28.9578125,13 L27.4929688,13 L27.4929688,5.890625 L28.9578125,5.890625 L28.9578125,13 Z M34.7017579,11.1347656 C34.7017579,11.0110671 34.6838544,10.8995773 34.648047,10.800293 C34.6122395,10.7010086 34.543067,10.6090499 34.4405274,10.5244141 C34.3379879,10.4397782 34.1963877,10.3567712 34.0157228,10.2753906 C33.8350578,10.19401 33.6014989,10.1077479 33.3150392,10.0166016 C32.9895167,9.91243438 32.6827164,9.79524805 32.394629,9.66503906 C32.1065416,9.53483008 31.8542655,9.38102302 31.6377931,9.20361328 C31.4213206,9.02620354 31.2504239,8.82194126 31.1250978,8.59082031 C30.9997716,8.35969937 30.9371095,8.08951978 30.9371095,7.78027344 C30.9371095,7.484048 31.0013992,7.21305461 31.1299806,6.96728516 C31.2585619,6.7215157 31.4392242,6.51237065 31.6719728,6.33984375 C31.9047213,6.16731685 32.1814113,6.03304084 32.5020509,5.93701172 C32.8226905,5.84098259 33.1750633,5.79296875 33.5591798,5.79296875 C33.953062,5.79296875 34.3111313,5.84749294 34.6333985,5.95654297 C34.9556658,6.06559299 35.2307281,6.21777246 35.4585938,6.41308594 C35.6864596,6.60839941 35.8622391,6.84033069 35.9859376,7.10888672 C36.1096361,7.37744275 36.1714845,7.67122236 36.1714845,7.99023438 L34.7066407,7.99023438 C34.7066407,7.84049404 34.6830407,7.70214907 34.6358399,7.57519531 C34.5886392,7.44824155 34.5162115,7.33919316 34.4185548,7.24804688 C34.320898,7.15690059 34.198829,7.08610051 34.0523438,7.03564453 C33.9058587,6.98518855 33.7333344,6.95996094 33.5347657,6.95996094 C33.3427075,6.95996094 33.1758797,6.98111958 33.0342774,7.0234375 C32.8926752,7.06575542 32.7754888,7.12434858 32.6827149,7.19921875 C32.589941,7.27408892 32.5199548,7.36197866 32.472754,7.46289062 C32.4255532,7.56380259 32.4019532,7.67122339 32.4019532,7.78515625 C32.4019532,8.01953242 32.5215809,8.21565676 32.7608399,8.37353516 C33.0000989,8.53141355 33.3508441,8.67871025 33.813086,8.81542969 C34.2004578,8.935873 34.5414374,9.06933521 34.8360353,9.21582031 C35.1306331,9.36230542 35.3763989,9.52831938 35.5733399,9.71386719 C35.770281,9.89941499 35.9192053,10.1077462 36.0201173,10.3388672 C36.1210292,10.5699881 36.1714845,10.8320298 36.1714845,11.125 C36.1714845,11.4375016 36.1104499,11.7158191 35.988379,11.9599609 C35.8663081,12.2041028 35.69297,12.4099927 35.4683595,12.5776367 C35.243749,12.7452808 34.9727556,12.8738602 34.6553712,12.9633789 C34.3379868,13.0528976 33.9839864,13.0976562 33.5933595,13.0976562 C33.3589833,13.0976562 33.1246106,13.0773114 32.8902345,13.0366211 C32.6558583,12.9959308 32.432065,12.9332687 32.2188478,12.8486328 C32.0056305,12.763997 31.8078786,12.6582038 31.625586,12.53125 C31.4432935,12.4042962 31.2846036,12.2545582 31.1495118,12.0820312 C31.01442,11.9095043 30.9086268,11.71338 30.832129,11.4936523 C30.7556312,11.2739247 30.7173829,11.0306003 30.7173829,10.7636719 L32.1871095,10.7636719 C32.1871095,10.9785167 32.2212888,11.1608065 32.2896485,11.3105469 C32.3580082,11.4602872 32.4532221,11.5815425 32.5752931,11.6743164 C32.697364,11.7670903 32.8446607,11.8346352 33.0171876,11.8769531 C33.1897145,11.919271 33.3817699,11.9404297 33.5933595,11.9404297 C33.7821625,11.9404297 33.9465489,11.9200848 34.0865235,11.8793945 C34.2264982,11.8387042 34.3420569,11.7825524 34.4332032,11.7109375 C34.5243495,11.6393226 34.5918944,11.5538742 34.6358399,11.4545898 C34.6797855,11.3553055 34.7017579,11.2486985 34.7017579,11.1347656 L34.7017579,11.1347656 Z M43.214258,7.07714844 L41.0365236,7.07714844 L41.0365236,13 L39.5716798,13 L39.5716798,7.07714844 L37.4232423,7.07714844 L37.4232423,5.890625 L43.214258,5.890625 L43.214258,7.07714844 Z M50.4523439,9.60644531 C50.4523439,10.1500678 50.3791025,10.6375304 50.2326174,11.0688477 C50.0861323,11.5001649 49.8802424,11.8655584 49.6149416,12.1650391 C49.3496408,12.4645197 49.0314474,12.6948234 48.6603518,12.855957 C48.2892561,13.0170906 47.8807316,13.0976562 47.4347658,13.0976562 C46.9888,13.0976562 46.5802755,13.0170906 46.2091799,12.855957 C45.8380843,12.6948234 45.5182633,12.4645197 45.2497072,12.1650391 C44.9811512,11.8655584 44.7720061,11.5001649 44.6222658,11.0688477 C44.4725255,10.6375304 44.3976564,10.1500678 44.3976564,9.60644531 L44.3976564,9.29394531 C44.3976564,8.75357803 44.4717117,8.26692925 44.6198244,7.83398438 C44.7679371,7.4010395 44.9754546,7.03320464 45.242383,6.73046875 C45.5093114,6.42773286 45.8283186,6.19580159 46.1994143,6.03466797 C46.5705099,5.87353435 46.9790344,5.79296875 47.4250002,5.79296875 C47.870966,5.79296875 48.2794905,5.87353435 48.6505861,6.03466797 C49.0216817,6.19580159 49.340689,6.42773286 49.6076174,6.73046875 C49.8745458,7.03320464 50.0820633,7.4010395 50.230176,7.83398438 C50.3782887,8.26692925 50.4523439,8.75357803 50.4523439,9.29394531 L50.4523439,9.60644531 Z M48.9679689,9.28417969 C48.9679689,8.53873325 48.8345067,7.97233267 48.5675783,7.58496094 C48.3006499,7.19758921 47.9197943,7.00390625 47.4250002,7.00390625 C46.9302061,7.00390625 46.5493505,7.19758921 46.2824221,7.58496094 C46.0154936,7.97233267 45.8820314,8.53873325 45.8820314,9.28417969 L45.8820314,9.60644531 C45.8820314,9.97754092 45.9170246,10.3054999 45.9870119,10.590332 C46.0569992,10.8751642 46.1579097,11.1144196 46.2897463,11.3081055 C46.4215829,11.5017913 46.5835279,11.6482742 46.7755861,11.7475586 C46.9676444,11.8468429 47.1873687,11.8964844 47.4347658,11.8964844 C47.92956,11.8964844 48.3087879,11.7011738 48.5724611,11.3105469 C48.8361343,10.9199199 48.9679689,10.3518917 48.9679689,9.60644531 L48.9679689,9.28417969 Z M54.8486331,10.3974609 L53.6816409,10.3974609 L53.6816409,13 L52.2167971,13 L52.2167971,5.890625 L54.8583987,5.890625 C55.268557,5.890625 55.6363918,5.93701125 55.9619143,6.02978516 C56.2874368,6.12255906 56.5624991,6.25927644 56.7871096,6.43994141 C57.0117201,6.62060637 57.1842444,6.84439971 57.3046877,7.11132812 C57.425131,7.37825654 57.4853518,7.68749824 57.4853518,8.0390625 C57.4853518,8.29948047 57.4560552,8.53303933 57.3974612,8.73974609 C57.3388671,8.94645286 57.2542326,9.13037029 57.1435549,9.29150391 C57.0328773,9.45263752 56.8994151,9.59342388 56.7431643,9.71386719 C56.5869135,9.8343105 56.411134,9.93847612 56.2158206,10.0263672 L57.7539065,12.9316406 L57.7539065,13 L56.1816409,13 L54.8486331,10.3974609 Z M53.6816409,9.2109375 L54.8632815,9.2109375 C55.0553397,9.2109375 55.2237951,9.18570989 55.3686526,9.13525391 C55.5135101,9.08479792 55.6339516,9.01318406 55.7299807,8.92041016 C55.8260098,8.82763625 55.8984375,8.71696028 55.9472659,8.58837891 C55.9960942,8.45979753 56.0205081,8.31575601 56.0205081,8.15625 C56.0205081,7.82096187 55.9252942,7.55729263 55.7348635,7.36523438 C55.5444329,7.17317612 55.2522809,7.07714844 54.8583987,7.07714844 L53.6816409,7.07714844 L53.6816409,9.2109375 Z M61.749805,9.09375 L63.2292972,5.890625 L64.8308597,5.890625 L62.4968753,10.421875 L62.4968753,13 L61.0076175,13 L61.0076175,10.421875 L58.6736331,5.890625 L60.2800784,5.890625 L61.749805,9.09375 Z" id="HISTORY" sketch:type="MSShapeGroup"></path>
        </g>
    </g>
</svg>