<?xml version="1.0" encoding="UTF-8" standalone="no"?>
<svg width="86px" height="18px" viewBox="0 0 86 18" version="1.1" xmlns="http://www.w3.org/2000/svg" xmlns:xlink="http://www.w3.org/1999/xlink" xmlns:sketch="http://www.bohemiancoding.com/sketch/ns">
    <!-- Generator: Sketch 3.2.2 (9983) - http://www.bohemiancoding.com/sketch -->
    <title>my-order</title>
    <desc>Created with Sketch.</desc>
    <defs></defs>
    <g id="Page-1" stroke="none" stroke-width="1" fill="none" fill-rule="evenodd" sketch:type="MSPage">
        <g id="my-order" sketch:type="MSArtboardGroup" fill="#4C565D">
            <path d="M12.1697206,12.6984592 L12.1697206,7.25401476 L10.598292,7.25401476 L10.598292,12.6984592 L8.24114912,12.6984592 L11.3840063,15.8095703 L14.5268634,12.6984592 L12.1697206,12.6984592 L12.1697206,12.6984592 Z M6.66972055,1.80957031 L3.52686341,4.92068142 L5.88400626,4.92068142 L5.88400626,10.3651259 L7.45543484,10.3651259 L7.45543484,4.92068142 L9.81257769,4.92068142 L6.66972055,1.80957031 L6.66972055,1.80957031 Z" id="Shape-2" sketch:type="MSShapeGroup"></path>
            <path d="M24.5488281,5.890625 L26.375,11.046875 L28.1914062,5.890625 L30.1152344,5.890625 L30.1152344,13 L28.6455078,13 L28.6455078,11.0566406 L28.7919922,7.70214844 L26.8730469,13 L25.8671875,13 L23.953125,7.70703125 L24.0996094,11.0566406 L24.0996094,13 L22.6347656,13 L22.6347656,5.890625 L24.5488281,5.890625 Z M34.4089844,9.09375 L35.8884766,5.890625 L37.4900391,5.890625 L35.1560547,10.421875 L35.1560547,13 L33.6667969,13 L33.6667969,10.421875 L31.3328125,5.890625 L32.9392579,5.890625 L34.4089844,9.09375 Z M47.8695314,9.60644531 C47.8695314,10.1500678 47.7962899,10.6375304 47.6498048,11.0688477 C47.5033197,11.5001649 47.2974299,11.8655584 47.032129,12.1650391 C46.7668282,12.4645197 46.4486348,12.6948234 46.0775392,12.855957 C45.7064436,13.0170906 45.297919,13.0976562 44.8519533,13.0976562 C44.4059875,13.0976562 43.9974629,13.0170906 43.6263673,12.855957 C43.2552717,12.6948234 42.9354507,12.4645197 42.6668947,12.1650391 C42.3983386,11.8655584 42.1891936,11.5001649 42.0394533,11.0688477 C41.8897129,10.6375304 41.8148439,10.1500678 41.8148439,9.60644531 L41.8148439,9.29394531 C41.8148439,8.75357803 41.8888991,8.26692925 42.0370119,7.83398438 C42.1851246,7.4010395 42.392642,7.03320464 42.6595705,6.73046875 C42.9264989,6.42773286 43.2455061,6.19580159 43.6166017,6.03466797 C43.9876973,5.87353435 44.3962219,5.79296875 44.8421876,5.79296875 C45.2881534,5.79296875 45.696678,5.87353435 46.0677736,6.03466797 C46.4388692,6.19580159 46.7578764,6.42773286 47.0248048,6.73046875 C47.2917332,7.03320464 47.4992507,7.4010395 47.6473634,7.83398438 C47.7954761,8.26692925 47.8695314,8.75357803 47.8695314,9.29394531 L47.8695314,9.60644531 Z M46.3851564,9.28417969 C46.3851564,8.53873325 46.2516942,7.97233267 45.9847658,7.58496094 C45.7178374,7.19758921 45.3369818,7.00390625 44.8421876,7.00390625 C44.3473935,7.00390625 43.9665379,7.19758921 43.6996095,7.58496094 C43.4326811,7.97233267 43.2992189,8.53873325 43.2992189,9.28417969 L43.2992189,9.60644531 C43.2992189,9.97754092 43.334212,10.3054999 43.4041994,10.590332 C43.4741867,10.8751642 43.5750971,11.1144196 43.7069337,11.3081055 C43.8387703,11.5017913 44.0007153,11.6482742 44.1927736,11.7475586 C44.3848318,11.8468429 44.6045562,11.8964844 44.8519533,11.8964844 C45.3467474,11.8964844 45.7259754,11.7011738 45.9896486,11.3105469 C46.2533218,10.9199199 46.3851564,10.3518917 46.3851564,9.60644531 L46.3851564,9.28417969 Z M52.2658205,10.3974609 L51.0988283,10.3974609 L51.0988283,13 L49.6339846,13 L49.6339846,5.890625 L52.2755861,5.890625 C52.6857444,5.890625 53.0535793,5.93701125 53.3791018,6.02978516 C53.7046242,6.12255906 53.9796866,6.25927644 54.2042971,6.43994141 C54.4289076,6.62060637 54.6014319,6.84439971 54.7218752,7.11132812 C54.8423185,7.37825654 54.9025393,7.68749824 54.9025393,8.0390625 C54.9025393,8.29948047 54.8732427,8.53303933 54.8146486,8.73974609 C54.7560546,8.94645286 54.67142,9.13037029 54.5607424,9.29150391 C54.4500647,9.45263752 54.3166025,9.59342388 54.1603518,9.71386719 C54.004101,9.8343105 53.8283215,9.93847612 53.633008,10.0263672 L55.1710939,12.9316406 L55.1710939,13 L53.5988283,13 L52.2658205,10.3974609 Z M51.0988283,9.2109375 L52.2804689,9.2109375 C52.4725272,9.2109375 52.6409825,9.18570989 52.78584,9.13525391 C52.9306975,9.08479792 53.051139,9.01318406 53.1471682,8.92041016 C53.2431973,8.82763625 53.3156249,8.71696028 53.3644533,8.58837891 C53.4132817,8.45979753 53.4376955,8.31575601 53.4376955,8.15625 C53.4376955,7.82096187 53.3424816,7.55729263 53.152051,7.36523438 C52.9616203,7.17317612 52.6694683,7.07714844 52.2755861,7.07714844 L51.0988283,7.07714844 L51.0988283,9.2109375 Z M56.7158206,13 L56.7158206,5.890625 L58.9033206,5.890625 C59.3818386,5.890625 59.8204735,5.97281819 60.2192385,6.13720703 C60.6180035,6.30159587 60.959797,6.53271335 61.2446291,6.83056641 C61.5294613,7.12841946 61.751627,7.485675 61.9111331,7.90234375 C62.0706391,8.3190125 62.1503909,8.78124746 62.1503909,9.2890625 L62.1503909,9.61132812 C62.1503909,10.1191432 62.0714529,10.5805643 61.9135745,10.9956055 C61.7556961,11.4106466 61.5327165,11.7670884 61.2446291,12.0649414 C60.9565418,12.3627945 60.6123069,12.5930981 60.2119143,12.7558594 C59.8115217,12.9186206 59.3704454,13 58.8886721,13 L56.7158206,13 Z M58.1806643,7.07714844 L58.1806643,11.8232422 L58.8886721,11.8232422 C59.4681021,11.8232422 59.9091784,11.6320006 60.2119143,11.2495117 C60.5146502,10.8670228 60.6660159,10.3209671 60.6660159,9.61132812 L60.6660159,9.27929688 C60.6660159,8.55663701 60.5162778,8.00895369 60.2167971,7.63623047 C59.9173164,7.26350725 59.4794953,7.07714844 58.9033206,7.07714844 L58.1806643,7.07714844 Z M68.1921878,9.91894531 L65.3796878,9.91894531 L65.3796878,11.8232422 L68.680469,11.8232422 L68.680469,13 L63.914844,13 L63.914844,5.890625 L68.6707034,5.890625 L68.6707034,7.07714844 L65.3796878,7.07714844 L65.3796878,8.77148438 L68.1921878,8.77148438 L68.1921878,9.91894531 Z M73.0716801,10.3974609 L71.9046879,10.3974609 L71.9046879,13 L70.4398441,13 L70.4398441,5.890625 L73.0814457,5.890625 C73.491604,5.890625 73.8594389,5.93701125 74.1849613,6.02978516 C74.5104838,6.12255906 74.7855461,6.25927644 75.0101566,6.43994141 C75.2347671,6.62060637 75.4072914,6.84439971 75.5277348,7.11132812 C75.6481781,7.37825654 75.7083988,7.68749824 75.7083988,8.0390625 C75.7083988,8.29948047 75.6791022,8.53303933 75.6205082,8.73974609 C75.5619142,8.94645286 75.4772796,9.13037029 75.3666019,9.29150391 C75.2559243,9.45263752 75.1224621,9.59342388 74.9662113,9.71386719 C74.8099605,9.8343105 74.634181,9.93847612 74.4388676,10.0263672 L75.9769535,12.9316406 L75.9769535,13 L74.4046879,13 L73.0716801,10.3974609 Z M71.9046879,9.2109375 L73.0863285,9.2109375 C73.2783868,9.2109375 73.4468421,9.18570989 73.5916996,9.13525391 C73.7365571,9.08479792 73.8569986,9.01318406 73.9530277,8.92041016 C74.0490569,8.82763625 74.1214845,8.71696028 74.1703129,8.58837891 C74.2191413,8.45979753 74.2435551,8.31575601 74.2435551,8.15625 C74.2435551,7.82096187 74.1483412,7.55729263 73.9579105,7.36523438 C73.7674799,7.17317612 73.4753279,7.07714844 73.0814457,7.07714844 L71.9046879,7.07714844 L71.9046879,9.2109375 Z" id="MY-ORDER" sketch:type="MSShapeGroup"></path>
        </g>
    </g>
</svg>