<?xml version="1.0" encoding="UTF-8" standalone="no"?>
<svg width="78px" height="18px" viewBox="0 0 78 18" version="1.1" xmlns="http://www.w3.org/2000/svg" xmlns:xlink="http://www.w3.org/1999/xlink" xmlns:sketch="http://www.bohemiancoding.com/sketch/ns">
    <!-- Generator: Sketch 3.2.2 (9983) - http://www.bohemiancoding.com/sketch -->
    <title>refresh</title>
    <desc>Created with Sketch.</desc>
    <defs></defs>
    <g id="Page-1" stroke="none" stroke-width="1" fill="none" fill-rule="evenodd" sketch:type="MSPage">
        <g id="refresh" sketch:type="MSArtboardGroup" fill="#4C565D">
            <path d="M9.51254223,2.51254223 C5.66254223,2.51254223 2.51254223,5.66254223 2.51254223,9.51254223 C2.51254223,13.3625422 5.66254223,16.5125422 9.51254223,16.5125422 C12.7500422,16.5125422 15.4625422,14.2375422 16.5125422,11.2625422 L14.7625422,11.2625422 C13.7125422,13.2750422 11.7875422,14.7625422 9.51254223,14.7625422 C6.62504223,14.7625422 4.26254223,12.4000422 4.26254223,9.51254223 C4.26254223,6.62504223 6.62504223,4.26254223 9.51254223,4.26254223 C11.0000422,4.26254223 12.2250422,4.87504223 13.0125422,6.01254223 L10.3875422,8.63754223 L16.5125422,8.63754223 L16.5125422,2.51254223 L14.7625422,4.26254223 C13.1875422,3.38754223 11.4375422,2.51254223 9.51254223,2.51254223 Z" id="Shape" sketch:type="MSShapeGroup"></path>
            <path d="M28.2666016,10.3974609 L27.0996094,10.3974609 L27.0996094,13 L25.6347656,13 L25.6347656,5.890625 L28.2763672,5.890625 C28.6865255,5.890625 29.0543604,5.93701125 29.3798828,6.02978516 C29.7054053,6.12255906 29.9804676,6.25927644 30.2050781,6.43994141 C30.4296886,6.62060637 30.6022129,6.84439971 30.7226562,7.11132812 C30.8430996,7.37825654 30.9033203,7.68749824 30.9033203,8.0390625 C30.9033203,8.29948047 30.8740237,8.53303933 30.8154297,8.73974609 C30.7568356,8.94645286 30.6722011,9.13037029 30.5615234,9.29150391 C30.4508458,9.45263752 30.3173836,9.59342388 30.1611328,9.71386719 C30.004882,9.8343105 29.8291025,9.93847612 29.6337891,10.0263672 L31.171875,12.9316406 L31.171875,13 L29.5996094,13 L28.2666016,10.3974609 Z M27.0996094,9.2109375 L28.28125,9.2109375 C28.4733083,9.2109375 28.6417636,9.18570989 28.7866211,9.13525391 C28.9314786,9.08479792 29.0519201,9.01318406 29.1479492,8.92041016 C29.2439783,8.82763625 29.316406,8.71696028 29.3652344,8.58837891 C29.4140627,8.45979753 29.4384766,8.31575601 29.4384766,8.15625 C29.4384766,7.82096187 29.3432627,7.55729263 29.152832,7.36523438 C28.9624014,7.17317612 28.6702494,7.07714844 28.2763672,7.07714844 L27.0996094,7.07714844 L27.0996094,9.2109375 Z M36.9939454,9.91894531 L34.1814454,9.91894531 L34.1814454,11.8232422 L37.4822266,11.8232422 L37.4822266,13 L32.7166016,13 L32.7166016,5.890625 L37.472461,5.890625 L37.472461,7.07714844 L34.1814454,7.07714844 L34.1814454,8.77148438 L36.9939454,8.77148438 L36.9939454,9.91894531 Z M43.3189454,10.0947266 L40.5064454,10.0947266 L40.5064454,13 L39.0416017,13 L39.0416017,5.890625 L43.6705079,5.890625 L43.6705079,7.07714844 L40.5064454,7.07714844 L40.5064454,8.91308594 L43.3189454,8.91308594 L43.3189454,10.0947266 Z M47.8519533,10.3974609 L46.6849611,10.3974609 L46.6849611,13 L45.2201173,13 L45.2201173,5.890625 L47.8617189,5.890625 C48.2718772,5.890625 48.6397121,5.93701125 48.9652345,6.02978516 C49.290757,6.12255906 49.5658193,6.25927644 49.7904298,6.43994141 C50.0150403,6.62060637 50.1875646,6.84439971 50.308008,7.11132812 C50.4284513,7.37825654 50.488672,7.68749824 50.488672,8.0390625 C50.488672,8.29948047 50.4593754,8.53303933 50.4007814,8.73974609 C50.3421874,8.94645286 50.2575528,9.13037029 50.1468751,9.29150391 C50.0361975,9.45263752 49.9027353,9.59342388 49.7464845,9.71386719 C49.5902337,9.8343105 49.4144542,9.93847612 49.2191408,10.0263672 L50.7572267,12.9316406 L50.7572267,13 L49.1849611,13 L47.8519533,10.3974609 Z M46.6849611,9.2109375 L47.8666017,9.2109375 C48.05866,9.2109375 48.2271153,9.18570989 48.3719728,9.13525391 C48.5168303,9.08479792 48.6372718,9.01318406 48.7333009,8.92041016 C48.8293301,8.82763625 48.9017577,8.71696028 48.9505861,8.58837891 C48.9994144,8.45979753 49.0238283,8.31575601 49.0238283,8.15625 C49.0238283,7.82096187 48.9286144,7.55729263 48.7381837,7.36523438 C48.5477531,7.17317612 48.2556011,7.07714844 47.8617189,7.07714844 L46.6849611,7.07714844 L46.6849611,9.2109375 Z M56.5792971,9.91894531 L53.7667971,9.91894531 L53.7667971,11.8232422 L57.0675783,11.8232422 L57.0675783,13 L52.3019533,13 L52.3019533,5.890625 L57.0578127,5.890625 L57.0578127,7.07714844 L53.7667971,7.07714844 L53.7667971,8.77148438 L56.5792971,8.77148438 L56.5792971,9.91894531 Z M62.3134768,11.1347656 C62.3134768,11.0110671 62.2955733,10.8995773 62.2597659,10.800293 C62.2239584,10.7010086 62.1547859,10.6090499 62.0522463,10.5244141 C61.9497068,10.4397782 61.8081066,10.3567712 61.6274416,10.2753906 C61.4467767,10.19401 61.2132178,10.1077479 60.9267581,10.0166016 C60.6012356,9.91243438 60.2944353,9.79524805 60.0063479,9.66503906 C59.7182605,9.53483008 59.4659844,9.38102302 59.249512,9.20361328 C59.0330395,9.02620354 58.8621428,8.82194126 58.7368166,8.59082031 C58.6114905,8.35969937 58.5488284,8.08951978 58.5488284,7.78027344 C58.5488284,7.484048 58.6131181,7.21305461 58.7416995,6.96728516 C58.8702808,6.7215157 59.0509431,6.51237065 59.2836916,6.33984375 C59.5164402,6.16731685 59.7931301,6.03304084 60.1137698,5.93701172 C60.4344094,5.84098259 60.7867822,5.79296875 61.1708987,5.79296875 C61.5647809,5.79296875 61.9228502,5.84749294 62.2451174,5.95654297 C62.5673847,6.06559299 62.842447,6.21777246 63.0703127,6.41308594 C63.2981785,6.60839941 63.473958,6.84033069 63.5976565,7.10888672 C63.721355,7.37744275 63.7832034,7.67122236 63.7832034,7.99023438 L62.3183596,7.99023438 C62.3183596,7.84049404 62.2947596,7.70214907 62.2475588,7.57519531 C62.2003581,7.44824155 62.1279304,7.33919316 62.0302737,7.24804688 C61.9326169,7.15690059 61.8105478,7.08610051 61.6640627,7.03564453 C61.5175776,6.98518855 61.3450533,6.95996094 61.1464846,6.95996094 C60.9544264,6.95996094 60.7875986,6.98111958 60.6459963,7.0234375 C60.5043941,7.06575542 60.3872077,7.12434858 60.2944338,7.19921875 C60.2016599,7.27408892 60.1316737,7.36197866 60.0844729,7.46289062 C60.0372721,7.56380259 60.0136721,7.67122339 60.0136721,7.78515625 C60.0136721,8.01953242 60.1332998,8.21565676 60.3725588,8.37353516 C60.6118178,8.53141355 60.962563,8.67871025 61.4248049,8.81542969 C61.8121767,8.935873 62.1531563,9.06933521 62.4477541,9.21582031 C62.742352,9.36230542 62.9881177,9.52831938 63.1850588,9.71386719 C63.3819999,9.89941499 63.5309242,10.1077462 63.6318362,10.3388672 C63.7327481,10.5699881 63.7832034,10.8320298 63.7832034,11.125 C63.7832034,11.4375016 63.7221688,11.7158191 63.6000979,11.9599609 C63.478027,12.2041028 63.3046889,12.4099927 63.0800784,12.5776367 C62.8554679,12.7452808 62.5844745,12.8738602 62.2670901,12.9633789 C61.9497057,13.0528976 61.5957053,13.0976562 61.2050784,13.0976562 C60.9707022,13.0976562 60.7363295,13.0773114 60.5019534,13.0366211 C60.2675772,12.9959308 60.0437839,12.9332687 59.8305666,12.8486328 C59.6173494,12.763997 59.4195975,12.6582038 59.2373049,12.53125 C59.0550123,12.4042962 58.8963225,12.2545582 58.7612307,12.0820312 C58.6261389,11.9095043 58.5203457,11.71338 58.4438479,11.4936523 C58.3673501,11.2739247 58.3291018,11.0306003 58.3291018,10.7636719 L59.7988284,10.7636719 C59.7988284,10.9785167 59.8330077,11.1608065 59.9013674,11.3105469 C59.9697271,11.4602872 60.064941,11.5815425 60.187012,11.6743164 C60.3090829,11.7670903 60.4563796,11.8346352 60.6289065,11.8769531 C60.8014334,11.919271 60.9934888,11.9404297 61.2050784,11.9404297 C61.3938814,11.9404297 61.5582678,11.9200848 61.6982424,11.8793945 C61.8382171,11.8387042 61.9537758,11.7825524 62.0449221,11.7109375 C62.1360684,11.6393226 62.2036133,11.5538742 62.2475588,11.4545898 C62.2915044,11.3553055 62.3134768,11.2486985 62.3134768,11.1347656 L62.3134768,11.1347656 Z M71.2605472,13 L69.7957034,13 L69.7957034,9.953125 L66.9392581,9.953125 L66.9392581,13 L65.4744143,13 L65.4744143,5.890625 L66.9392581,5.890625 L66.9392581,8.77148438 L69.7957034,8.77148438 L69.7957034,5.890625 L71.2605472,5.890625 L71.2605472,13 Z" id="REFRESH" sketch:type="MSShapeGroup"></path>
        </g>
    </g>
</svg>