<?xml version="1.0" encoding="UTF-8" standalone="no"?>
<svg width="100px" height="18px" viewBox="0 0 100 18" version="1.1" xmlns="http://www.w3.org/2000/svg" xmlns:xlink="http://www.w3.org/1999/xlink" xmlns:sketch="http://www.bohemiancoding.com/sketch/ns">
    <!-- Generator: Sketch 3.2.2 (9983) - http://www.bohemiancoding.com/sketch -->
    <title>trash</title>
    <desc>Created with Sketch.</desc>
    <defs></defs>
    <g id="Page-1" stroke="none" stroke-width="1" fill="none" fill-rule="evenodd" sketch:type="MSPage">
        <g id="trash" sketch:type="MSArtboardGroup" fill="#4C565D">
            <path d="M7.57143402,6.85713434 C7.57143402,6.69641986 7.44643387,6.57141972 7.28571939,6.57141972 L6.71429014,6.57141972 C6.55357566,6.57141972 6.42857552,6.69641986 6.42857552,6.85713434 L6.42857552,11.9999976 C6.42857552,12.1607121 6.55357566,12.2857122 6.71429014,12.2857122 L7.28571939,12.2857122 C7.44643387,12.2857122 7.57143402,12.1607121 7.57143402,11.9999976 L7.57143402,6.85713434 Z M9.85715103,6.85713434 C9.85715103,6.69641986 9.73215088,6.57141972 9.57143641,6.57141972 L9.00000715,6.57141972 C8.83929268,6.57141972 8.71429253,6.69641986 8.71429253,6.85713434 L8.71429253,11.9999976 C8.71429253,12.1607121 8.83929268,12.2857122 9.00000715,12.2857122 L9.57143641,12.2857122 C9.73215088,12.2857122 9.85715103,12.1607121 9.85715103,11.9999976 L9.85715103,6.85713434 Z M12.142868,6.85713434 C12.142868,6.69641986 12.0178679,6.57141972 11.8571534,6.57141972 L11.2857242,6.57141972 C11.1250097,6.57141972 11.0000095,6.69641986 11.0000095,6.85713434 L11.0000095,11.9999976 C11.0000095,12.1607121 11.1250097,12.2857122 11.2857242,12.2857122 L11.8571534,12.2857122 C12.0178679,12.2857122 12.142868,12.1607121 12.142868,11.9999976 L12.142868,6.85713434 Z M13.2857265,13.3214278 C13.2857265,13.7499997 13.0446548,14 13.0000119,14 L5.57143164,14 C5.52678873,14 5.28571701,13.7499997 5.28571701,13.3214278 L5.28571701,4.85713196 L13.2857265,4.85713196 L13.2857265,13.3214278 Z M7.28571939,3.71427345 L7.72321992,2.66962935 C7.75000566,2.63391502 7.82143432,2.58034353 7.87500581,2.57141495 L10.7053663,2.57141495 C10.7500092,2.58034353 10.8303665,2.63391502 10.8571522,2.66962935 L11.2857242,3.71427345 L7.28571939,3.71427345 Z M15.5714436,3.99998808 C15.5714436,3.8392736 15.4464434,3.71427345 15.2857289,3.71427345 L12.5267971,3.71427345 L11.9017963,2.22320025 C11.7232247,1.78569973 11.1875098,1.42855644 10.7142949,1.42855644 L7.85714865,1.42855644 C7.3839338,1.42855644 6.84821887,1.78569973 6.66964723,2.22320025 L6.04464649,3.71427345 L3.28571463,3.71427345 C3.12500015,3.71427345 3,3.8392736 3,3.99998808 L3,4.57141733 C3,4.73213181 3.12500015,4.85713196 3.28571463,4.85713196 L4.14285851,4.85713196 L4.14285851,13.3571421 C4.14285851,14.3392861 4.78571641,15.1428585 5.57143164,15.1428585 L13.0000119,15.1428585 C13.7857271,15.1428585 14.4285851,14.3035718 14.4285851,13.3214278 L14.4285851,4.85713196 L15.2857289,4.85713196 C15.4464434,4.85713196 15.5714436,4.73213181 15.5714436,4.57141733 L15.5714436,3.99998808 Z" id="-2" sketch:type="MSShapeGroup"></path>
            <path d="M26.9863281,7.07714844 L24.8085938,7.07714844 L24.8085938,13 L23.34375,13 L23.34375,7.07714844 L21.1953125,7.07714844 L21.1953125,5.890625 L26.9863281,5.890625 L26.9863281,7.07714844 Z M31.153125,10.3974609 L29.9861329,10.3974609 L29.9861329,13 L28.5212891,13 L28.5212891,5.890625 L31.1628907,5.890625 C31.573049,5.890625 31.9408838,5.93701125 32.2664063,6.02978516 C32.5919288,6.12255906 32.8669911,6.25927644 33.0916016,6.43994141 C33.3162121,6.62060637 33.4887364,6.84439971 33.6091797,7.11132812 C33.729623,7.37825654 33.7898438,7.68749824 33.7898438,8.0390625 C33.7898438,8.29948047 33.7605472,8.53303933 33.7019532,8.73974609 C33.6433591,8.94645286 33.5587246,9.13037029 33.4480469,9.29150391 C33.3373693,9.45263752 33.2039071,9.59342388 33.0476563,9.71386719 C32.8914055,9.8343105 32.715626,9.93847612 32.5203125,10.0263672 L34.0583985,12.9316406 L34.0583985,13 L32.4861329,13 L31.153125,10.3974609 Z M29.9861329,9.2109375 L31.1677735,9.2109375 C31.3598317,9.2109375 31.5282871,9.18570989 31.6731446,9.13525391 C31.8180021,9.08479792 31.9384436,9.01318406 32.0344727,8.92041016 C32.1305018,8.82763625 32.2029295,8.71696028 32.2517579,8.58837891 C32.3005862,8.45979753 32.325,8.31575601 32.325,8.15625 C32.325,7.82096187 32.2297862,7.55729263 32.0393555,7.36523438 C31.8489249,7.17317612 31.5567729,7.07714844 31.1628907,7.07714844 L29.9861329,7.07714844 L29.9861329,9.2109375 Z M39.616797,11.5351562 L37.0484376,11.5351562 L36.5601563,13 L35.0025392,13 L37.6490235,5.890625 L39.0064454,5.890625 L41.6675782,13 L40.109961,13 L39.616797,11.5351562 Z M37.4439454,10.3486328 L39.2212892,10.3486328 L38.3277345,7.6875 L37.4439454,10.3486328 Z M46.7181642,11.1347656 C46.7181642,11.0110671 46.7002607,10.8995773 46.6644533,10.800293 C46.6286458,10.7010086 46.5594733,10.6090499 46.4569337,10.5244141 C46.3543942,10.4397782 46.212794,10.3567712 46.032129,10.2753906 C45.8514641,10.19401 45.6179052,10.1077479 45.3314455,10.0166016 C45.005923,9.91243438 44.6991227,9.79524805 44.4110353,9.66503906 C44.1229479,9.53483008 43.8706718,9.38102302 43.6541994,9.20361328 C43.4377269,9.02620354 43.2668302,8.82194126 43.141504,8.59082031 C43.0161779,8.35969937 42.9535158,8.08951978 42.9535158,7.78027344 C42.9535158,7.484048 43.0178055,7.21305461 43.1463869,6.96728516 C43.2749682,6.7215157 43.4556305,6.51237065 43.688379,6.33984375 C43.9211276,6.16731685 44.1978176,6.03304084 44.5184572,5.93701172 C44.8390968,5.84098259 45.1914696,5.79296875 45.5755861,5.79296875 C45.9694683,5.79296875 46.3275376,5.84749294 46.6498048,5.95654297 C46.9720721,6.06559299 47.2471344,6.21777246 47.4750001,6.41308594 C47.7028659,6.60839941 47.8786454,6.84033069 48.0023439,7.10888672 C48.1260424,7.37744275 48.1878908,7.67122236 48.1878908,7.99023438 L46.723047,7.99023438 C46.723047,7.84049404 46.699447,7.70214907 46.6522462,7.57519531 C46.6050455,7.44824155 46.5326178,7.33919316 46.4349611,7.24804688 C46.3373043,7.15690059 46.2152353,7.08610051 46.0687501,7.03564453 C45.922265,6.98518855 45.7497407,6.95996094 45.551172,6.95996094 C45.3591138,6.95996094 45.192286,6.98111958 45.0506837,7.0234375 C44.9090815,7.06575542 44.7918951,7.12434858 44.6991212,7.19921875 C44.6063473,7.27408892 44.5363611,7.36197866 44.4891603,7.46289062 C44.4419595,7.56380259 44.4183595,7.67122339 44.4183595,7.78515625 C44.4183595,8.01953242 44.5379872,8.21565676 44.7772462,8.37353516 C45.0165052,8.53141355 45.3672504,8.67871025 45.8294923,8.81542969 C46.2168641,8.935873 46.5578437,9.06933521 46.8524415,9.21582031 C47.1470394,9.36230542 47.3928051,9.52831938 47.5897462,9.71386719 C47.7866873,9.89941499 47.9356116,10.1077462 48.0365236,10.3388672 C48.1374355,10.5699881 48.1878908,10.8320298 48.1878908,11.125 C48.1878908,11.4375016 48.1268562,11.7158191 48.0047853,11.9599609 C47.8827144,12.2041028 47.7093763,12.4099927 47.4847658,12.5776367 C47.2601553,12.7452808 46.9891619,12.8738602 46.6717775,12.9633789 C46.3543931,13.0528976 46.0003927,13.0976562 45.6097658,13.0976562 C45.3753896,13.0976562 45.1410169,13.0773114 44.9066408,13.0366211 C44.6722646,12.9959308 44.4484713,12.9332687 44.235254,12.8486328 C44.0220368,12.763997 43.8242849,12.6582038 43.6419923,12.53125 C43.4596998,12.4042962 43.3010099,12.2545582 43.1659181,12.0820312 C43.0308263,11.9095043 42.9250331,11.71338 42.8485353,11.4936523 C42.7720375,11.2739247 42.7337892,11.0306003 42.7337892,10.7636719 L44.2035158,10.7636719 C44.2035158,10.9785167 44.2376951,11.1608065 44.3060548,11.3105469 C44.3744145,11.4602872 44.4696284,11.5815425 44.5916994,11.6743164 C44.7137703,11.7670903 44.861067,11.8346352 45.0335939,11.8769531 C45.2061208,11.919271 45.3981762,11.9404297 45.6097658,11.9404297 C45.7985688,11.9404297 45.9629552,11.9200848 46.1029298,11.8793945 C46.2429045,11.8387042 46.3584632,11.7825524 46.4496095,11.7109375 C46.5407558,11.6393226 46.6083007,11.5538742 46.6522462,11.4545898 C46.6961918,11.3553055 46.7181642,11.2486985 46.7181642,11.1347656 L46.7181642,11.1347656 Z M55.6652346,13 L54.2003908,13 L54.2003908,9.953125 L51.3439455,9.953125 L51.3439455,13 L49.8791018,13 L49.8791018,5.890625 L51.3439455,5.890625 L51.3439455,8.77148438 L54.2003908,8.77148438 L54.2003908,5.890625 L55.6652346,5.890625 L55.6652346,13 Z" id="TRASH" sketch:type="MSShapeGroup"></path>
        </g>
    </g>
</svg>